<svg width="44" height="47" viewBox="0 0 44 47" fill="none" xmlns="http://www.w3.org/2000/svg">
<path d="M5.13333 2.67881L44 0L42.0933 47L0 40.3003L5.13333 2.67881Z" fill="#E2CA9E"/>
<path d="M19.528 24.392L20.68 24.056C21.112 24.92 21.64 26.048 21.856 26.696L20.656 27.152C20.44 26.432 19.96 25.256 19.528 24.392ZM22.6 27.056H24.232V33.704H22.6V27.056ZM16.264 27.416H17.728V29.6H20.512V30.944H16.264V27.416ZM19.648 27.056H21.232V29.288C21.232 31.136 20.8 32.84 17.752 33.896C17.56 33.512 17.08 32.912 16.72 32.6C19.312 31.832 19.648 30.536 19.648 29.24V27.056ZM13.144 15.824H19.576V17.264H13.144V15.824ZM24.184 15.824H30.736V17.264H24.184V15.824ZM29.944 12.728H32.128V31.304C32.128 32.48 31.936 33.152 31.216 33.536C30.496 33.896 29.44 33.944 27.904 33.944C27.808 33.344 27.544 32.312 27.232 31.712C28.216 31.76 29.2 31.76 29.536 31.736C29.848 31.736 29.944 31.616 29.944 31.304V12.728ZM13.336 12.728H21.016V20.312H13.336V18.728H18.88V14.312H13.336V12.728ZM31.048 12.728V14.312H25.072V18.728H31.048V20.312H22.912V12.728H31.048ZM11.992 12.728H14.152V34.04H11.992V12.728ZM16 24.152C15.904 23.84 15.688 23.096 15.496 22.736C15.76 22.688 16.024 22.544 16.288 22.304C16.552 22.064 17.488 21.08 18.016 20.048L19.384 20.768C18.64 21.776 17.728 22.736 16.936 23.336V23.36C16.936 23.36 16 23.816 16 24.152ZM16 24.176L15.976 23.192L16.672 22.808L19.84 22.688C19.72 23.024 19.576 23.504 19.528 23.768C16.816 23.936 16.264 24.032 16 24.176ZM15.88 27.008C15.808 26.696 15.592 26 15.424 25.64C15.808 25.592 16.216 25.352 16.72 24.968C17.224 24.584 18.976 23.072 20.152 21.536L21.352 22.352C19.936 23.864 18.352 25.28 16.792 26.24V26.288C16.792 26.288 15.88 26.672 15.88 27.008ZM15.88 27.008L15.856 26L16.528 25.568L20.728 25.208C20.752 25.544 20.848 26.024 20.896 26.288C16.864 26.72 16.216 26.864 15.88 27.008ZM26.032 24.416L27.136 24.056C27.616 24.896 28.168 26.024 28.432 26.672L27.256 27.176C26.992 26.456 26.464 25.28 26.032 24.416ZM22.504 24.176C22.408 23.864 22.192 23.144 22 22.76C22.288 22.712 22.552 22.568 22.792 22.328C23.056 22.088 23.992 21.104 24.52 20.072L25.888 20.792C25.168 21.8 24.256 22.76 23.44 23.36V23.384C23.44 23.384 22.504 23.84 22.504 24.176ZM22.504 24.176L22.48 23.216L23.176 22.832L26.344 22.688C26.224 23.024 26.08 23.504 26.032 23.768C23.344 23.936 22.792 24.056 22.504 24.176ZM22.408 27.032C22.336 26.72 22.12 26.024 21.976 25.664C22.336 25.616 22.768 25.376 23.248 24.968C23.776 24.608 25.528 23.072 26.68 21.512L27.88 22.328C26.488 23.864 24.88 25.28 23.32 26.264V26.312C23.32 26.312 22.408 26.696 22.408 27.032ZM22.408 27.032L22.384 26.024L23.056 25.592L27.28 25.232C27.304 25.568 27.376 26.048 27.448 26.312C23.392 26.744 22.768 26.864 22.408 27.032ZM23.8 29.6H26.992V30.944H23.8V29.6ZM26.176 27.44H27.688V31.64H26.176V27.44Z" fill="#8A5D3B"/>
</svg>
