<svg width="41" height="45" viewBox="0 0 41 45" fill="none" xmlns="http://www.w3.org/2000/svg">
<path d="M0 0L41 5.0625L36.111 43.3125L0 45V0Z" fill="#E2CA9E"/>
<path d="M8.2 15.608H18.088V17.72H8.2V15.608ZM11.92 20.744H16V22.808H11.92V20.744ZM10.384 16.736H12.592C12.52 24.152 12.256 30.272 9.304 33.968C8.944 33.416 8.2 32.648 7.624 32.288C10.24 29.048 10.312 23.528 10.384 16.736ZM15.184 20.744H17.32C17.32 20.744 17.32 21.416 17.296 21.68C17.08 29.144 16.864 31.784 16.216 32.648C15.808 33.248 15.376 33.44 14.728 33.536C14.2 33.608 13.336 33.632 12.424 33.584C12.4 32.96 12.16 32.072 11.872 31.52C12.616 31.592 13.288 31.592 13.624 31.592C13.936 31.616 14.128 31.52 14.32 31.28C14.752 30.68 14.968 28.232 15.184 21.176V20.744ZM21.064 22.496L22.528 21.008C23.968 21.944 25.84 23.312 26.776 24.248L25.216 25.904C24.352 24.968 22.504 23.504 21.064 22.496ZM19.552 29.24L20.992 27.536C23.2 28.64 26.248 30.44 27.736 31.688L26.176 33.656C24.784 32.336 21.808 30.464 19.552 29.24ZM10.984 12.416L13 11.648C13.792 12.656 14.632 14.024 14.968 14.936L12.856 15.824C12.568 14.888 11.752 13.472 10.984 12.416ZM24.592 13.352C25.768 15.92 28.144 18.704 30.448 20C29.92 20.432 29.2 21.248 28.816 21.824C26.44 20.216 24.112 17.048 22.816 13.976L24.592 13.352ZM23.152 11.624L25.24 12.248C23.992 16.424 21.808 19.808 18.688 22.016C18.352 21.416 17.68 20.672 17.128 20.216C19.912 18.464 22.072 15.368 23.152 11.624Z" fill="#8A5D3B"/>
</svg>
