<svg width="45" height="51" viewBox="0 0 45 51" fill="none" xmlns="http://www.w3.org/2000/svg">
<path d="M0 12.75L29.0497 0L45 37.6705L5.12641 51L0 12.75Z" fill="#E2CA9E"/>
<path d="M25.896 16.568L27.6 15.392C28.968 16.568 30.6 18.224 31.344 19.352L29.496 20.648C28.824 19.496 27.24 17.792 25.896 16.568ZM10.272 21.728H31.752V23.888H10.272V21.728ZM9.864 28.664C12.72 28.184 17.28 27.296 21.48 26.456L21.648 28.496C17.736 29.384 13.536 30.296 10.464 30.944L9.864 28.664ZM15.144 17.408H17.424V34.256C17.424 35.6 17.136 36.248 16.272 36.608C15.432 36.968 14.088 37.04 12.096 37.04C12 36.416 11.616 35.384 11.28 34.736C12.744 34.808 14.16 34.784 14.592 34.76C15 34.76 15.144 34.64 15.144 34.232V17.408ZM19.872 14.984L21.432 16.904C18.504 17.864 14.424 18.56 10.968 18.992C10.848 18.464 10.56 17.624 10.296 17.096C13.656 16.616 17.496 15.824 19.872 14.984ZM22.248 14.936H24.624C24.528 25.376 26.784 34.808 29.4 34.808C29.976 34.808 30.264 33.608 30.408 30.608C30.888 31.136 31.68 31.664 32.304 31.904C31.92 35.984 31.152 37.112 29.184 37.112C24.36 37.112 22.344 26.096 22.248 14.936ZM28.776 24.848L30.768 25.712C28.368 30.128 24.432 33.872 20.04 36.176C19.704 35.624 19.056 34.88 18.48 34.376C22.704 32.384 26.616 28.88 28.776 24.848Z" fill="#8A5D3B"/>
</svg>
