<svg width="32" height="30" viewBox="0 0 32 30" fill="none" xmlns="http://www.w3.org/2000/svg">
<path d="M27 4L30 28.1169L0 30V0L27 4Z" fill="#E2CA9E"/>
<path d="M12 11.06V13.08H16.02V11.06H12ZM10.22 9.76H17.9V14.38H10.22V9.76ZM9.66 16.86V19.48H11.84V16.86H9.66ZM8.1 15.52H13.48V20.8H8.1V15.52ZM16.22 16.86V19.48H18.5V16.86H16.22ZM14.64 15.52H20.16V20.8H14.64V15.52ZM4.14 6.96H21.12V8.64H4.14V6.96ZM4.96 7.02H6.8V19.68C6.8 21.4 7.52 22.1 9.62 22.1C10.88 22.1 16.9 22.1 18.32 22.1C19.5 22.1 21.06 22.02 21.84 21.86C21.9 22.34 22.02 23.22 22.12 23.66C21.48 23.82 19.84 23.86 18.26 23.86C16.86 23.86 10.6 23.86 9.8 23.86C6.52 23.86 4.96 22.82 4.96 19.54V7.02Z" fill="#464646"/>
</svg>
