<svg width="30" height="32" viewBox="0 0 30 32" fill="none" xmlns="http://www.w3.org/2000/svg">
<path d="M2.82353 3.6L28.2353 0L30 29.6L0 32L2.82353 3.6Z" fill="#E2CA9E"/>
<path d="M5.96 11.86H12.08V13.66H5.96V11.86ZM8.26 7.38H10.04V20.48H8.26V7.38ZM5.56 20.52C7.18 19.94 9.66 18.9 12.04 17.9L12.46 19.58C10.36 20.58 8.1 21.62 6.32 22.42L5.56 20.52ZM17.54 7.12H19.32V21.14H17.54V7.12ZM11.42 15.28L22.02 10.8L22.7 12.42L12.12 16.96L11.42 15.28ZM13.5 9.02H15.3V22.22C15.3 23.36 15.52 23.56 16.8 23.56C17.44 23.56 20.5 23.56 21.22 23.56C22.36 23.56 22.56 23.06 22.72 20.86C23.14 21.16 23.88 21.46 24.4 21.56C24.14 24.36 23.54 25.26 21.34 25.26C20.76 25.26 17.26 25.26 16.7 25.26C14.2 25.26 13.5 24.64 13.5 22.2V9.02ZM21.54 11.32H21.32L22.02 10.8L23.44 11.26L23.36 11.56C23.2 14.38 22.9 18.06 22.38 20.4L20.84 19.96C21.2 17.82 21.44 14.1 21.54 11.32Z" fill="#464646"/>
</svg>
