<svg width="35" height="29" viewBox="0 0 35 29" fill="none" xmlns="http://www.w3.org/2000/svg">
<path d="M27.5 1L30.5 28.5H0L3.5 3L27.5 1Z" fill="#E2CA9E"/>
<path d="M17.92 6.38H19.84V24.68H17.92V6.38ZM14.5 7.18L16.32 7.54C15.76 10.3 14.82 13.06 13.72 14.84C13.34 14.56 12.54 14.12 12.08 13.92C13.2 12.28 14.04 9.72 14.5 7.18ZM14.94 10.12H24.26V11.98H14.48L14.94 10.12ZM12.32 15.98H25.16V17.82H12.32V15.98ZM11.12 6.2L12.92 6.76C11.64 10.14 9.66 13.62 7.56 15.9C7.38 15.44 6.84 14.44 6.5 13.98C8.34 12.1 10.08 9.16 11.12 6.2ZM9.12 11.52L10.92 9.72V9.74V24.66H9.12V11.52Z" fill="#464646"/>
</svg>
