<svg width="33" height="31" viewBox="0 0 33 31" fill="none" xmlns="http://www.w3.org/2000/svg">
<path d="M0 2H33L30.2207 31L1.30749 27.5423L0 2Z" fill="#E2CA9E"/>
<path d="M17.04 9.94H25.22V11.74H17.04V9.94ZM17.52 6.12L19.46 6.44C18.78 10.38 17.52 14.04 15.58 16.4C15.32 16 14.66 15.16 14.24 14.78C15.94 12.78 16.98 9.56 17.52 6.12ZM22.1 10.88L23.96 11.14C22.88 17.78 20.62 22.14 15.84 24.74C15.62 24.34 15.02 23.56 14.62 23.18C19.18 20.98 21.22 16.96 22.1 10.88ZM17.78 11.52C18.98 16.62 21.42 21.1 25.38 23.06C24.96 23.42 24.36 24.12 24.08 24.6C19.96 22.3 17.58 17.58 16.24 11.86L17.78 11.52ZM12.34 6.42H14.22V24.7H12.34V6.42ZM7.84 21.22L7.64 19.44L8.42 18.74L13.2 17.24C13.32 17.74 13.54 18.46 13.7 18.86C9.04 20.48 8.32 20.86 7.84 21.22ZM7.84 21.22C7.72 20.76 7.38 19.9 7.1 19.5C7.42 19.3 7.82 18.9 7.82 18.1V8.32H9.68V19.62C9.68 19.62 7.84 20.56 7.84 21.22Z" fill="#464646"/>
</svg>
