<svg width="33" height="32" viewBox="0 0 33 32" fill="none" xmlns="http://www.w3.org/2000/svg">
<path d="M31 2L25 31.5L0.5 28V3.5L31 2Z" fill="#E2CA9E"/>
<path d="M15.92 6.38H17.84V24.68H15.92V6.38ZM12.5 7.18L14.32 7.54C13.76 10.3 12.82 13.06 11.72 14.84C11.34 14.56 10.54 14.12 10.08 13.92C11.2 12.28 12.04 9.72 12.5 7.18ZM12.94 10.12H22.26V11.98H12.48L12.94 10.12ZM10.32 15.98H23.16V17.82H10.32V15.98ZM9.12 6.2L10.92 6.76C9.64 10.14 7.66 13.62 5.56 15.9C5.38 15.44 4.84 14.44 4.5 13.98C6.34 12.1 8.08 9.16 9.12 6.2ZM7.12 11.52L8.92 9.72V9.74V24.66H7.12V11.52Z" fill="#464646"/>
</svg>
