<svg width="29" height="31" viewBox="0 0 29 31" fill="none" xmlns="http://www.w3.org/2000/svg">
<path d="M0.5 5L28.1765 0.5V30.5996H3L0.5 5Z" fill="#E2CA9E"/>
<path d="M6.4 8.62H23.58V12.42H21.74V10.26H8.16V12.42H6.4V8.62ZM8.66 11.64H21.28V13.14H8.66V11.64ZM14.22 10.66H16C15.58 14.14 14.28 15.88 8.78 16.7C8.66 16.28 8.26 15.66 7.96 15.32C12.88 14.7 13.9 13.4 14.22 10.66ZM13.7 14.32L14.62 13.14C16.86 13.64 19.86 14.62 21.44 15.44L20.48 16.78C18.98 15.94 16.02 14.9 13.7 14.32ZM6.12 16.4H23.88V18.06H6.12V16.4ZM19.3 17.52H21.16V23.68C21.16 24.66 20.96 25.14 20.24 25.42C19.54 25.68 18.46 25.68 16.9 25.68C16.82 25.18 16.56 24.46 16.32 23.96C17.44 24 18.56 24 18.88 24C19.2 23.96 19.3 23.9 19.3 23.64V17.52ZM8.36 19.12H10.12V24.72H8.36V19.12ZM9.56 19.12H16.72V23.72H9.56V22.28H14.94V20.56H9.56V19.12ZM13.72 7.38L15.6 7C15.94 7.62 16.22 8.5 16.32 9.08L14.34 9.5C14.28 8.92 14 8.04 13.72 7.38Z" fill="#464646"/>
</svg>
